#!OML:ASF F:\VICON\USERDATA\INSTALL\Justin_Nancy\Justin_Nancy.ASF
:FULLY-SPECIFIED
:DEGREES
1
root 14.2019 16.4018 -22.8825 -3.13587 -30.0485 5.74941
lowerback 17.2506 -1.30359 -3.76003
upperback 1.13829 -2.62879 -1.65506
thorax -8.36727 -1.16948 0.983359
lowerneck -16.7289 -1.86855 -11.242
upperneck 20.1369 -1.22907 6.97221
head 9.20593 -0.692534 4.12867
rclavicle -9.73672e-014 2.00773e-014
rhumerus -56.2328 10.7394 -87.7409
rradius 101.995
rwrist -0.298012
rhand -12.2762 24.0365
rfingers 7.12502
rthumb 13.7909 -5.48643
lclavicle -9.73672e-014 2.00773e-014
lhumerus -40.3765 -17.3174 96.3684
lradius 108.601
lwrist 33.1781
lhand -16.444 10.2375
lfingers 7.12502
lthumb 9.77181 39.9908
rfemur -40.5406 -17.0377 33.0009
rtibia 67.5194
rfoot -14.9512 -9.88339
rtoes -9.65495
lfemur -14.5245 5.30531 -12.0437
ltibia 47.6944
lfoot -19.4305 2.15391
ltoes -27.2595
2
root 14.1429 16.4468 -22.431 -2.94972 -29.9149 6.22791
lowerback 16.8269 -1.82116 -3.79403
upperback 1.4557 -3.29365 -1.75428
thorax -7.76417 -1.50869 1.02932
lowerneck -17.3879 -1.68229 -11.0476
upperneck 19.9313 -0.885566 6.75565
head 9.21909 -0.525818 4.06227
rclavicle 7.19725e-014 -2.36554e-014
rhumerus -56.68 9.94823 -87.0304
rradius 102.261
rwrist -1.54638
rhand -12.4935 23.7708
rfingers 7.12502
rthumb 13.5814 -5.76619
lclavicle 7.19725e-014 -2.36554e-014
lhumerus -38.7667 -17.5952 95.5723
lradius 107.62
lwrist 32.4541
lhand -18.1976 9.53419
lfingers 7.12502
lthumb 8.07967 39.3597
rfemur -41.529 -17.5315 34.2953
rtibia 63.0719
rfoot -15.1985 -8.82867
rtoes -11.4065
lfemur -14.041 5.20736 -12.9691
ltibia 48.8588
lfoot -19.2293 1.23838
ltoes -32.5969
3
root 14.0459 16.4917 -21.9847 -2.94678 -30.6852 6.03756
lowerback 16.7176 -1.96141 -3.81152
upperback 1.97695 -3.44892 -1.62953
thorax -7.12454 -1.60416 1.19067
lowerneck -17.9263 -1.46669 -10.6427
upperneck 19.43 -0.548408 6.44661
head 9.10844 -0.351743 3.92007
rclavicle -3.15571e-015 4.07509e-015
rhumerus -57.2825 9.45338 -86.5711
rradius 102.955
rwrist -2.6476
rhand -13.0604 23.443
rfingers 7.12502
rthumb 13.035 -6.12975
lclavicle -3.15571e-015 4.07509e-015
lhumerus -37.1789 -17.5605 94.5125
lradius 106.939
lwrist 31.7534
lhand -19.518 8.65423
lfingers 7.12502
lthumb 6.80512 38.5249
rfemur -41.1806 -17.0476 36.1058
rtibia 57.8155
rfoot -14.5717 -6.3092
rtoes -11.2382
lfemur -13.0481 5.77344 -12.823
ltibia 50.3894
lfoot -18.1351 -0.0170418
ltoes -34.9207
4
root 13.9487 16.5497 -21.5264 -2.78673 -31.2892 5.58182
lowerback 16.8784 -2.23423 -3.4962
upperback 2.26451 -3.72938 -1.36451
thorax -6.89196 -1.75466 1.35694
lowerneck -18.2727 -1.23237 -10.5546
upperneck 19.0611 -0.153296 6.24889
head 9.00655 -0.16861 3.87971
rclavicle -1.13755e-013 1.56046e-014
rhumerus -57.9071 9.37037 -86.1436
rradius 103.164
rwrist -3.43122
rhand -13.4839 23.4013
rfingers 7.12502
rthumb 12.6268 -6.19706
lclavicle -1.13755e-013 1.56046e-014
lhumerus -36.2205 -16.923 93.6342
lradius 106.668
lwrist 31.7091
lhand -17.8444 8.85293
lfingers 7.12502
lthumb 8.42052 38.6651
rfemur -40.4696 -16.8746 38.0131
rtibia 52.2934
rfoot -14.6572 -6.51782
rtoes -20.2292
lfemur -12.3475 6.11934 -12.3804
ltibia 52.0236
lfoot -15.8996 -2.41835
ltoes -35.1736
5
root 13.8479 16.613 -21.0562 -2.74977 -32.0978 5.25265
lowerback 16.9176 -2.37294 -3.22563
upperback 2.56456 -3.84032 -1.1355
thorax -6.58707 -1.82438 1.46565
lowerneck -18.555 -1.02559 -10.6076
upperneck 18.8592 0.216577 6.1111
head 8.95409 -0.00591796 3.88434
rclavicle 2.24254e-014 -1.14301e-015
rhumerus -58.6305 9.38662 -85.8092
rradius 103.569
rwrist -4.26303
rhand -13.5567 23.5399
rfingers 7.12502
rthumb 12.5566 -6.06277
lclavicle 2.24254e-014 -1.14301e-015
lhumerus -35.495 -16.2834 92.9881
lradius 106.579
lwrist 32.1153
lhand -17.379 9.37791
lfingers 7.12502
lthumb 8.86959 39.1715
rfemur -39.2461 -16.6104 39.6184
rtibia 46.5483
rfoot -13.1592 -3.82559
rtoes -18.8761
lfemur -11.8313 6.70955 -11.9628
ltibia 53.8169
lfoot -12.7282 -5.59012
ltoes -35.7385
